<svg id="Capa_1" enable-background="new 0 0 512 512" height="512" viewBox="0 0 512 512" width="512" xmlns="http://www.w3.org/2000/svg"><g><g><path d="m488.337 433.789h-44.447c-5.579 0-10.102-4.523-10.102-10.102v-22.224h64.65v22.224c.001 5.579-4.522 10.102-10.101 10.102z" fill="#eab14d"/></g><g><path d="m476.215 401.463v22.224c0 5.579-4.523 10.102-10.102 10.102h22.224c5.579 0 10.102-4.523 10.102-10.102v-22.224z" fill="#e7a52e"/></g><g><path d="m23.663 433.789h44.447c5.579 0 10.102-4.523 10.102-10.102v-22.224h-64.65v22.224c-.001 5.579 4.522 10.102 10.101 10.102z" fill="#eab14d"/></g><g><path d="m55.807 401.463v22.224c0 5.579-4.523 10.102-10.102 10.102h22.405c5.579 0 10.102-4.523 10.102-10.102v-22.224z" fill="#e7a52e"/></g><g><path d="m359.037 504.5h-206.074c-5.579 0-10.102-4.523-10.102-10.102v-30.305h226.276v30.305c.001 5.579-4.521 10.102-10.1 10.102z" fill="#eab14d"/></g><g><path d="m341.859 464.094v30.305c0 5.579-4.523 10.102-10.102 10.102h27.279c5.579 0 10.102-4.523 10.102-10.102v-30.305z" fill="#e7a52e"/></g><g><path d="m364.263 62.049h-216.526c-13.185 0-25.541 6.433-33.102 17.235l-93.77 133.956c-4.754 6.792-7.304 14.881-7.304 23.172v165.052h64.65v-145.464l48.488-32.325v224.256c0 8.926 7.236 16.163 16.163 16.163h226.276c8.926 0 16.163-7.236 16.163-16.163v-224.256l48.488 32.325v145.463h64.65v-165.051c0-8.29-2.55-16.38-7.304-23.172l-93.77-133.957c-7.561-10.801-19.917-17.234-33.102-17.234z" fill="#ffe07d"/></g><g><g><path d="m383.1 191.35c-11.158 0-20.203 9.045-20.203 20.203v236.378c0 8.926-7.236 16.163-16.163 16.163h22.404c8.926 0 16.163-7.236 16.163-16.163v-256.581z" fill="#ffd064"/></g><g><path d="m126.699 191.35-62.094 42.47c-5.505 3.766-8.798 10.006-8.798 16.676v150.967h22.404v-145.463l48.488-32.325z" fill="#ffd064"/></g><g><path d="m491.135 213.24-93.77-133.957c-7.561-10.802-19.917-17.235-33.102-17.235h-22.404c13.185 0 25.541 6.433 33.102 17.235l93.77 133.957c4.754 6.792 7.304 14.881 7.304 23.172v165.052h22.404v-165.052c0-8.29-2.55-16.38-7.304-23.172z" fill="#ffd064"/></g></g><g><path d="m332.782 22.674 31.481 39.375-108.263 96.975-108.263-96.975 31.481-39.375c7.668-9.591 19.281-15.174 31.56-15.174h90.445c12.279 0 23.892 5.584 31.559 15.174z" fill="#eab14d"/></g><g><path d="m201.08 47.095c3.673-4.595 9.237-7.27 15.119-7.27h79.602c5.882 0 11.445 2.675 15.118 7.269v.001c5.39 6.741 5.902 16.162 1.275 23.447l-56.194 88.482-56.195-88.482c-4.627-7.286-4.115-16.706 1.275-23.447z" fill="#544f57"/></g><g><path d="m256 427.728h86.748c5.579 0 10.102-4.523 10.102-10.102v-48.362l-6.728-5.164c-14.944-11.471-23.704-29.239-23.704-48.078v-9.514h-66.418-66.418v9.514c0 18.839-8.76 36.607-23.704 48.078l-6.728 5.164v48.362c0 5.579 4.523 10.102 10.102 10.102z" fill="#eab14d"/></g><g><path d="m385.3 320.222c-4.142 0-7.5 3.358-7.5 7.5v120.208c0 4.775-3.885 8.66-8.66 8.66h-226.28c-4.775 0-8.66-3.885-8.66-8.66l-.001-256.581c0-4.142-3.358-7.5-7.5-7.5s-7.5 3.358-7.5 7.5v28.307l-45.15 30.103c-2.086 1.391-3.339 3.733-3.339 6.24v137.96h-49.65v-62.246c0-4.142-3.358-7.5-7.5-7.5s-7.5 3.358-7.5 7.5l.001 91.973c0 9.706 7.896 17.602 17.602 17.602h44.447c9.706 0 17.602-7.896 17.602-17.602l-.002-163.672 33.49-22.329v210.245c0 10.425 6.781 19.291 16.162 22.435v24.034c0 9.706 7.896 17.602 17.602 17.602h206.073c9.706 0 17.602-7.896 17.602-17.602v-24.034c9.381-3.144 16.162-12.009 16.162-22.435v-120.208c-.001-4.142-3.359-7.5-7.501-7.5zm-317.19 106.067h-44.447c-1.435 0-2.602-1.167-2.602-2.602v-14.727h49.65v14.727c0 1.435-1.167 2.602-2.601 2.602zm290.927 70.711h-206.074c-1.435 0-2.602-1.167-2.602-2.602v-22.808h211.276v22.809c.001 1.434-1.166 2.601-2.6 2.601z"/><path d="m498.44 362.031c-4.142 0-7.5 3.358-7.5 7.5v24.429h-49.65v-137.96c0-2.507-1.253-4.849-3.339-6.24l-45.15-30.103v-28.307c0-4.142-3.358-7.5-7.5-7.5s-7.5 3.358-7.5 7.5l-.001 101.257c0 4.142 3.358 7.5 7.5 7.5s7.5-3.358 7.5-7.5v-54.922l33.49 22.329-.001 163.673c0 9.706 7.896 17.602 17.602 17.602h44.447c9.706 0 17.602-7.896 17.602-17.602l.001-54.156c-.001-4.142-3.359-7.5-7.501-7.5zm-10.103 64.258h-44.447c-1.435 0-2.602-1.167-2.602-2.602v-14.727h49.65v14.727c.001 1.435-1.166 2.602-2.601 2.602z"/><path d="m497.274 208.939-93.762-133.964c-8.245-11.761-21.319-19.146-35.51-20.261l-29.362-36.723c-9.14-11.433-22.779-17.991-37.417-17.991h-90.445c-14.639 0-28.278 6.558-37.418 17.991l-29.362 36.724c-14.191 1.114-27.266 8.5-35.513 20.265l-93.756 133.955c-5.671 8.089-8.669 17.59-8.669 27.476v60.215c0 4.142 3.358 7.5 7.5 7.5s7.5-3.358 7.5-7.5v-60.216c0-6.788 2.058-13.312 5.955-18.869l93.757-133.956c5.634-8.039 14.552-13.1 24.241-13.908l75.443 67.577-18.387 93.303-3.757-.849c-4.039-.916-8.056 1.621-8.969 5.662-.914 4.04 1.622 8.056 5.662 8.969l4.164.941-1.827 9.27c-.801 4.064 1.844 8.008 5.908 8.809.49.097.978.143 1.458.143 3.51 0 6.646-2.477 7.35-6.051l1.746-8.861 4.178.944c.557.126 1.113.186 1.661.186 3.427 0 6.521-2.364 7.309-5.848.914-4.04-1.622-8.056-5.662-8.969l-4.584-1.036 16.746-84.972 17.546 15.717c1.424 1.276 3.214 1.914 5.004 1.914s3.58-.638 5.004-1.914l17.546-15.717 16.746 84.972-4.584 1.036c-4.04.914-6.575 4.929-5.662 8.969.788 3.484 3.881 5.848 7.309 5.848.547 0 1.104-.06 1.661-.186l4.178-.944 1.746 8.861c.705 3.575 3.84 6.051 7.35 6.051.481 0 .969-.046 1.458-.143 4.064-.801 6.709-4.745 5.908-8.809l-1.827-9.27 4.164-.941c4.04-.914 6.575-4.929 5.662-8.969s-4.928-6.578-8.969-5.662l-3.757.849-18.387-93.303 75.443-67.577c9.689.808 18.606 5.869 24.238 13.903l93.763 133.965c3.894 5.553 5.951 12.076 5.951 18.864v98.059c0 4.142 3.358 7.5 7.5 7.5s7.5-3.358 7.5-7.5v-98.058c-.003-9.886-3.001-19.386-8.669-27.471zm-291.138-142.418c-2.909-4.58-2.586-10.505.802-14.743 2.263-2.83 5.638-4.453 9.261-4.453h79.602c3.623 0 6.998 1.623 9.261 4.453 3.388 4.238 3.71 10.163.802 14.743l-49.864 78.514zm85.305 50.689 27.085-42.647c6.344-9.989 5.641-22.91-1.749-32.152-5.124-6.41-12.77-10.086-20.976-10.086h-79.602c-8.207 0-15.853 3.676-20.977 10.086-7.389 9.242-8.092 22.163-1.748 32.152l27.085 42.647-62.536-56.016 27.053-33.836c6.278-7.854 15.646-12.358 25.701-12.358h90.445c10.055 0 19.423 4.504 25.702 12.357l27.053 33.836z"/><path d="m322.418 299.008h-132.836c-4.142 0-7.5 3.358-7.5 7.5v9.514c0 16.396-7.765 32.145-20.771 42.128l-6.728 5.165c-1.849 1.419-2.933 3.618-2.933 5.949v48.361c0 9.706 7.896 17.602 17.602 17.602h173.495c9.706 0 17.602-7.896 17.602-17.602v-48.361c0-2.331-1.084-4.53-2.933-5.949l-6.728-5.165c-13.006-9.984-20.771-25.733-20.771-42.128v-9.514c.001-4.142-3.357-7.5-7.499-7.5zm19.137 71.041 3.794 2.913v44.664c0 1.435-1.167 2.602-2.602 2.602h-173.495c-1.435 0-2.602-1.167-2.602-2.602v-44.664l3.794-2.913c16.679-12.804 26.637-33 26.637-54.027v-2.014h117.836v2.014c.001 21.027 9.958 41.224 26.638 54.027z"/></g></g></svg>